# xmcd CD database file
#
# Track frame offsets:
#	187
#	16617
#	31830
#	46547
#	67767
#	82877
#	97307
#	112065
#	125642
#	140232
#
# Disc length: 2102 seconds
#
# Revision: 0
# Processed by: cddbd v1.5.1PL0 Copyright (c) Steve Scherf et al.
# Submitted via: CDex 1.51
#
DISCID=7c08340a
DTITLE=あかのたちお - 戦国魔神ゴーショーグン劇場版　音楽編
DYEAR=1999
DGENRE=Anime
TTITLE0=涙の法則〜プロローグ〜
TTITLE1=スペース・スクランブル
TTITLE2=ダーク・クラッシュ
TTITLE3=クイック・ラウンド・ザ・ワールド
TTITLE4=Flash Lady
TTITLE5=威圧
TTITLE6=目覚めえぬ誘い
TTITLE7=Take Off
TTITLE8=VS
TTITLE9=涙の法則
EXTD=YEAR: 1999
EXTT0=
EXTT1=
EXTT2=
EXTT3=
EXTT4=
EXTT5=
EXTT6=
EXTT7=
EXTT8=
EXTT9=
PLAYORDER=
